/vscmnt/brussel_pixiu_data/_data_brussel/112/vsc11236/PredSimResults/SUBJ11opt3D/trackIG/worker_03.mot
version=1
nRows=8
nColumns=50
inDegrees=yes
endheader
                time	         pelvis_tilt	         pelvis_list	     pelvis_rotation	           pelvis_tx	           pelvis_ty	           pelvis_tz	       hip_flexion_r	     hip_adduction_r	      hip_rotation_r	        knee_angle_r	       ankle_angle_r	         mtp_angle_r	       hip_flexion_l	     hip_adduction_l	      hip_rotation_l	        knee_angle_l	       ankle_angle_l	         mtp_angle_l	    lumbar_extension	      lumbar_bending	     lumbar_rotation	 ercspn_r/activation	 intobl_r/activation	 extobl_r/activation	    abd_r/activation	    add_r/activation	hamstrings_r/activation	bifemsh_r/activation	glut_max_r/activation	iliopsoas_r/activation	rect_fem_r/activation	  vasti_r/activation	gastroc_r/activation	 soleus_r/activation	tib_ant_r/activation	 ercspn_l/activation	 intobl_l/activation	 extobl_l/activation	    abd_l/activation	    add_l/activation	hamstrings_l/activation	bifemsh_l/activation	glut_max_l/activation	iliopsoas_l/activation	rect_fem_l/activation	  vasti_l/activation	gastroc_l/activation	 soleus_l/activation	tib_ant_l/activation	
          0.80812207	         -2.23168856	         -0.09807443	         -4.17091527	          0.64649766	          0.95079315	          0.00957529	        -11.02252878	         -1.67794436	         -5.34221149	        -12.47730734	         13.86186706	         24.27071839	         28.78021738	         -2.73111025	         -2.61208257	        -10.20439458	          0.30876428	          0.22849824	        -15.01465063	          4.07526507	          3.04788701	          0.00999999	          0.00999999	          0.00999999	          0.05069008	          0.01269373	          0.01266194	          0.12823325	          0.01716424	          0.04400822	          0.00999999	          0.00999999	          0.12892733	          0.28765312	          0.01276380	          0.01269373	          0.22158531	          0.07507854	          0.00999999	          0.15579958	          0.00999999	          0.09417650	          0.05659178	          0.08556695	          0.04863747	          0.01842700	          0.00999999	          0.00999999	          0.33509101	
          0.82428451	         -2.41718904	         -0.11741771	         -4.02221749	          0.66303382	          0.94854320	          0.00727563	        -11.53369491	         -1.83867499	         -5.90937261	        -13.08688616	         13.44998761	         25.75342045	         28.28824499	         -2.50419209	         -2.64740883	        -10.66814502	         -0.19339369	          0.20122689	        -14.60208332	          3.60339829	          3.32375079	          0.00999999	          0.00999999	          0.01269374	          0.03993313	          0.00999999	          0.01498316	          0.10102086	          0.02239837	          0.03466923	          0.00999999	          0.00999999	          0.10480611	          0.27593229	          0.01005519	          0.00999999	          0.21962207	          0.05914612	          0.01650656	          0.12273733	          0.03354744	          0.07419129	          0.06049206	          0.06740878	          0.03831610	          0.01451661	          0.01269373	          0.01269373	          0.37287567	
          0.84044695	         -2.58348327	         -0.10688752	         -3.84964438	          0.67998177	          0.94676185	          0.00487669	        -11.94781092	         -2.04763664	         -6.49507183	        -13.91807518	         12.84612107	         27.32624076	         27.79924062	         -2.28563885	         -2.76029513	        -11.18379689	         -0.92892186	          0.19509398	        -14.15453186	          3.08070800	          3.59714305	          0.00999999	          0.00999999	          0.01000000	          0.03145892	          0.00999999	          0.01180358	          0.07958321	          0.01764521	          0.02731207	          0.01185953	          0.00999999	          0.08256519	          0.25891828	          0.00999999	          0.01471104	          0.17301604	          0.04659471	          0.05276588	          0.15341794	          0.04296724	          0.05844715	          0.05517008	          0.05310395	          0.03018504	          0.04027688	          0.00999999	          0.00999999	          0.43133324	
          0.85660940	         -2.73046339	         -0.08917220	         -3.64821225	          0.69708908	          0.94569410	          0.00237991	        -12.16867780	         -2.29010276	         -7.08628167	        -15.09800636	         11.98624268	         29.02135413	         27.39829251	         -2.08207381	         -2.97187265	        -11.86986961	         -1.68918427	          0.15555494	        -13.70371603	          2.53796842	          3.86314278	          0.01516232	          0.00999999	          0.00999999	          0.02478302	          0.00999999	          0.01818297	          0.06269485	          0.01504506	          0.02151617	          0.00999999	          0.01907687	          0.06504402	          0.23505903	          0.00999999	          0.01611308	          0.13630029	          0.03670684	          0.07581767	          0.16408934	          0.04829220	          0.04604407	          0.04346243	          0.04183476	          0.02377947	          0.09360808	          0.00999999	          0.00999999	          0.47173427	
          0.87277184	         -2.85805738	         -0.06646215	         -3.42530216	          0.71424241	          0.94550441	         -0.00018640	        -12.16049135	         -2.57084025	         -7.68062058	        -16.65743986	         10.81957086	         30.82495203	         27.03194486	         -1.87941886	         -3.20475286	        -12.70575653	         -2.13091632	          0.11200725	        -13.25920288	          1.98196967	          4.11938618	          0.04614066	          0.00999999	          0.00999999	          0.01952381	          0.01000000	          0.04245860	          0.04939036	          0.01269374	          0.01695022	          0.00999999	          0.02925970	          0.05124102	          0.20547448	          0.00999999	          0.01269373	          0.10737598	          0.02891728	          0.09445663	          0.16476611	          0.04926388	          0.03627305	          0.05677990	          0.03295700	          0.01873322	          0.12500862	          0.00999999	          0.00999999	          0.47174848	
          0.88893428	         -2.96696237	         -0.04201230	         -3.18537221	          0.73129585	          0.94631879	         -0.00278644	        -11.89282035	         -2.89109595	         -8.28233101	        -18.62081147	          9.34155512	         32.62463589	         26.65225876	         -1.66264211	         -3.36678670	        -13.61782419	         -2.15486848	          0.07676503	        -12.83160951	          1.42006707	          4.36501067	          0.05536923	          0.00999999	          0.00999999	          0.01538066	          0.07524938	          0.05973008	          0.03890923	          0.01000000	          0.01335321	          0.00999999	          0.02777995	          0.04036716	          0.16284627	          0.00999999	          0.00999999	          0.08458971	          0.02278074	          0.10654753	          0.19767702	          0.05339390	          0.02857554	          0.06419233	          0.02596319	          0.01475784	          0.13299974	          0.00999999	          0.00999999	          0.43848533	
          0.90509672	         -3.05654809	         -0.02772159	         -2.93080629	          0.74810660	          0.94807089	         -0.00538577	        -11.29418589	         -3.25223857	         -8.89080829	        -21.11365125	          7.65720707	         34.17784696	         26.21506979	         -1.43447672	         -3.40858366	        -14.50992151	         -1.81263215	          0.08508494	        -12.43281296	          0.86735729	          4.59606272	          0.06864899	          0.04132270	          0.00999999	          0.01211673	          0.05928070	          0.06880005	          0.03065230	          0.00999999	          0.01051952	          0.00999999	          0.02188477	          0.03180084	          0.12828864	          0.00999999	          0.01000005	          0.06663892	          0.01794644	          0.11744836	          0.20683971	          0.05896278	          0.02251153	          0.05434011	          0.02045354	          0.01162608	          0.13909703	          0.00999999	          0.00999999	          0.38004967	
          0.92125916	         -3.12518387	         -0.04128349	         -2.67120632	          0.76455672	          0.95055768	         -0.00797254	        -10.29776463	         -3.65815839	         -9.50591451	        -24.24886590	          5.87471041	         35.20537344	         25.66815507	         -1.21330785	         -3.33119612	        -15.26236589	         -1.21248576	          0.19816037	        -12.07471402	          0.35288703	          4.80549248	          0.07614992	          0.07095851	          0.00999999	          0.00999999	          0.04670073	          0.07049312	          0.02414757	          0.00999999	          0.00999999	          0.00999999	          0.01724060	          0.02505238	          0.10106449	          0.00999999	          0.01000000	          0.05249747	          0.01413802	          0.12290563	          0.20368213	          0.06228068	          0.01773436	          0.05055290	          0.01611309	          0.00999999	          0.14198355	          0.00999999	          0.00999999	          0.31589986	
